<?xml version="1.0" encoding="UTF-8"?>
<svg id="Layer_2" data-name="Layer 2" xmlns="http://www.w3.org/2000/svg" viewBox="0 0 900.25 719.3">
  <g id="Layer_1-2" data-name="Layer 1">
    <g>
      <g>
        <g>
          <path d="M180.99,615.16c-5.51,0-9.52-.37-11.91-1.09-2.15-.65-3.57-1.84-4.33-3.62-.86-2-1.44-5.33-1.73-9.88l-4.82-105.88c-.14-5.63,1.26-9.54,4.16-11.64,3.05-2.19,8.31-3.31,15.65-3.31.67,0,1.79-.35,1.79-2.71s-1.12-2.71-1.79-2.71c-3.52,0-6.18.08-7.84.23l-11.46.23c-2.4,0-4.37-.08-5.84-.22-1.62-.16-2.79-.24-3.58-.24-3.47,0-6.2,2.2-8.11,6.54l-47.55,109.23-49.98-103.09c-2.68-5.37-4.63-8.69-5.94-10.17-1.48-1.67-3.44-2.52-5.82-2.52-1.23,0-2.88.08-5.04.23-2.02.15-4.57.23-7.6.23-2.71,0-4.91-.08-6.63-.23l-9-.23c-.47,0-2.02.19-2.02,2.71s1.54,2.71,2.02,2.71c7.73,0,13.61,3.15,17.96,9.63l-2.06,104.12c-.15,7.62-1.67,13.21-4.52,16.64-2.79,3.34-7.16,5.03-12.99,5.03-.47,0-2.02.19-2.02,2.71s1.55,2.71,2.02,2.71c4,0,7.13-.08,9.21-.23l12.36-.23,12.34.23c2.31.15,5.66.23,9.97.23.67,0,1.79-.35,1.79-2.71s-1.12-2.71-1.79-2.71c-6.6,0-11.32-1.66-14.02-4.92-2.76-3.33-4.09-8.95-3.95-16.7l1.73-89.04,54.33,113.71c.06.13.15.26.26.36.85.86,1.89,1.31,3.01,1.31,1.91,0,2.72-1.03,3.06-1.72l49.16-113.9,4.12,96.46c.29,4.37.05,7.58-.71,9.53-.7,1.78-2.05,2.99-4.13,3.71-2.3.79-6.02,1.19-11.05,1.19-.67,0-1.79.35-1.79,2.71s1.12,2.71,1.79,2.71c4.46,0,7.97-.08,10.36-.23l15.35-.23,15.8.23c2.9.15,6.87.23,11.79.23.47,0,2.02-.19,2.02-2.71s-1.55-2.71-2.02-2.71Z"/>
          <path d="M302.4,582.88h0c-.65-.06-1.58-.05-2.24.55-.33.31-.53.71-.57,1.17-1.93,8.99-5.5,16.03-10.62,20.93-5.08,4.86-11.57,7.33-19.3,7.33h-16.31c-4.57,0-7.97-.4-10.11-1.18-1.97-.72-3.3-1.88-4.07-3.56-.84-1.8-1.26-4.63-1.26-8.4v-51.28h24.63c7.6,0,13.11,1.4,16.37,4.16,3.19,2.71,4.82,7.28,4.82,13.58,0,.67.35,1.79,2.71,1.79s2.71-1.12,2.71-1.81l-.23-11.55c-.15-2.25-.23-5.62-.23-10.01l.23-19.08c0-.67-.35-1.79-2.71-1.79s-2.71,1.12-2.71,1.79c0,5.43-1.52,9.21-4.64,11.57-3.19,2.41-8.52,3.64-15.85,3.64h-25.09v-45.54c0-5.24,1.01-8.76,2.99-10.48,1.4-1.21,4.87-2.66,13.38-2.66h12.64c7.27,0,13.23,2.12,17.7,6.31,4.49,4.2,7.21,10.34,8.08,18.1,0,.34.12,2.02,2.59,2.02s2.59-1.68,2.59-2.04l-.46-28.7c0-2.13-1.27-3.4-3.4-3.4h-93.27c-.67,0-1.79.35-1.79,2.71s1.12,2.71,1.79,2.71c5.49,0,9.53.4,12,1.2,2.24.73,3.7,1.95,4.47,3.74.84,1.97,1.27,5.19,1.27,9.58v106.37c0,4.4-.43,7.67-1.28,9.72-.76,1.85-2.21,3.06-4.43,3.71-2.47.73-6.51,1.09-12.03,1.09-.67,0-1.79.35-1.79,2.71s1.12,2.71,1.79,2.71h97.18c1.76,0,3.01-.39,3.81-1.19.79-.79,1.19-2,1.19-3.58,0-10.45.69-20.74,2.07-30.78,0-.57-.25-1.93-2.59-2.13Z"/>
          <path d="M429.7,483.2h0c-12.39-6.19-26.81-9.33-42.87-9.33-2.47,0-7.3.15-14.81.46-5.6.45-11.35.69-17.12.69-3.83,0-9.14-.16-15.83-.46l-11.51-.23c-.67,0-1.79.35-1.79,2.71s1.12,2.71,1.79,2.71c5.49,0,9.53.4,12,1.2,2.24.73,3.71,1.95,4.47,3.74.84,1.97,1.27,5.19,1.27,9.58v106.37c0,4.39-.46,7.64-1.38,9.68-.84,1.86-2.33,3.09-4.56,3.75-2.47.73-6.51,1.09-12.03,1.09-.67,0-1.79.35-1.79,2.71s1.12,2.71,1.79,2.71c4.91,0,8.88-.08,11.74-.23l15.83-.23c3.91,0,7.56.08,10.85.23,3.28.15,6.07.3,8.35.46,6,.46,11.37.69,15.95.69,14.24,0,27.55-3.18,39.56-9.45,12.03-6.29,21.71-15.34,28.77-26.91,7.07-11.56,10.65-25.05,10.65-40.09,0-13.36-3.47-25.59-10.32-36.33-6.84-10.72-16.6-19.31-29.01-25.51ZM446.84,550.09c0,13.66-2.54,25.55-7.55,35.35-4.99,9.75-12,17.22-20.84,22.19-8.86,4.99-19.19,7.53-30.7,7.53-9.28,0-15.53-1.29-18.56-3.82-2.96-2.48-4.46-6.93-4.46-13.22v-103.38c0-4.28.76-7.45,2.26-9.42,1.48-1.95,3.85-3.29,7.04-3.98,3.42-.74,8.43-1.12,14.88-1.12,11.46,0,21.67,3.09,30.36,9.18,8.72,6.11,15.56,14.55,20.35,25.08,4.8,10.58,7.23,22.57,7.23,35.64Z"/>
          <path d="M533.02,485.01c.77-1.87,2.28-3.16,4.6-3.96,2.52-.87,6.51-1.31,11.86-1.31.67,0,1.79-.35,1.79-2.71s-1.12-2.71-1.82-2.71l-11.06.23c-6.66.3-12.28.46-16.71.46-4.13,0-9.44-.15-15.83-.46l-11.74-.23c-.47,0-2.02.19-2.02,2.71s1.55,2.71,2.02,2.71c5.49,0,9.53.4,12,1.2,2.26.73,3.76,1.97,4.6,3.77.91,1.96,1.37,5.18,1.37,9.55v106.37c0,4.38-.46,7.64-1.38,9.68-.84,1.87-2.33,3.09-4.56,3.75-2.47.73-6.51,1.09-12.03,1.09-.47,0-2.02.19-2.02,2.71s1.55,2.71,2.02,2.71c4.92,0,8.88-.08,11.74-.23l15.81-.23,16.49.23c2.76.15,6.57.23,11.33.23.67,0,1.79-.35,1.79-2.71s-1.12-2.71-1.79-2.71c-5.52,0-9.57-.37-12.03-1.09-2.23-.66-3.68-1.84-4.44-3.61-.84-1.97-1.27-5.27-1.27-9.82v-105.91c0-4.4.43-7.66,1.28-9.72Z"/>
          <path d="M727.27,474.33l-9.47.23c-4.83.3-8.74.46-11.63.46s-6.8-.15-11.68-.46l-9-.23c-.67,0-1.79.35-1.79,2.71s1.12,2.71,1.79,2.71c5.89,0,9.97,1.66,12.48,5.09,2.57,3.5,3.88,9.15,3.88,16.79v87.51l-84.48-102.35c-1.81-2.26-3.64-4.78-5.45-7.49-1.31-1.95-2.2-3.14-2.81-3.76-.8-.79-2-1.19-3.58-1.19-2.01,0-3.69.08-4.85.23l-10.77.23c-3.32,0-5.92-.08-7.77-.23l-8.54-.23c-.47,0-2.02.19-2.02,2.71s1.54,2.71,2.02,2.71c5.91,0,11.87,2.84,17.74,8.43v105.35c0,7.61-1.41,13.21-4.18,16.62-2.71,3.33-7.19,5.02-13.33,5.02-.67,0-1.79.35-1.79,2.71s1.12,2.71,1.79,2.71c4.31,0,7.66-.08,9.91-.23l12.12-.23,11.65.23c2.15.15,5.12.23,8.82.23.47,0,2.02-.19,2.02-2.71s-1.55-2.71-2.02-2.71c-5.75,0-9.85-1.64-12.51-5.01-2.71-3.42-4.08-9.01-4.08-16.64v-96.18l105.48,126.29c.46.46,1.08.69,1.86.69.29,0,.61-.03.95-.1,2-.4,2.22-1.69,2.22-2.22v-120.38c0-7.62,1.41-13.25,4.19-16.75,2.75-3.45,6.95-5.13,12.86-5.13.47,0,2.02-.19,2.02-2.71,0-2.57-1.61-2.71-2.05-2.71Z"/>
          <path d="M898,615.16c-4.4,0-8.21-1.81-11.66-5.55-3.57-3.86-7.97-11.4-13.1-22.42l-54.62-113.8c-.24-.73-.94-1.6-2.87-1.6-1.39,0-2.38.43-2.95,1.28-.04.07-.08.14-.11.21l-48.48,113.49c-3.33,7.86-6.38,13.9-9.07,17.93-2.62,3.93-5.36,6.69-8.14,8.18-2.78,1.5-6.24,2.25-10.28,2.25-1.14,0-2.48.71-2.48,2.71s1.33,2.71,2.48,2.71c3.25,0,7.22-.15,11.79-.46,5.5-.3,10.19-.46,13.94-.46,4.2,0,9.28.16,15.09.46,5.18.31,9.22.46,12.02.46,1.14,0,2.48-.71,2.48-2.71s-1.34-2.71-2.48-2.71c-14.1,0-20.96-4.3-20.96-13.14,0-3.63.97-7.71,2.88-12.11l13.21-30.67h53.2l19.39,40.59c2.05,4.4,3.09,7.69,3.09,9.77s-.87,3.39-2.75,4.17c-2.2.92-6,1.39-11.32,1.39-1.09,0-2.25.71-2.25,2.71s1.16,2.71,2.25,2.71c2.79,0,6.69-.15,11.57-.46,5.19-.3,9.57-.46,13.02-.46,2.87,0,7.28.15,13.49.46,6.09.31,10.67.46,13.62.46,1.09,0,2.25-.71,2.25-2.71s-1.21-2.71-2.25-2.71ZM834.31,551.75h-46.41l21.94-51.05,24.47,51.05Z"/>
        </g>
        <g>
          <g>
            <polygon points="494.18 226.26 558.22 278.27 568.26 275.68 494.18 215.52 383.42 255.39 433.12 278.05 494.18 226.26"/>
            <polygon points="446.1 283.97 494.18 243.19 542.41 282.35 548.73 280.72 494.18 236.42 440.91 281.61 446.1 283.97"/>
          </g>
          <polygon points="511.26 78.42 491.41 89.41 491.41 209.22 495.5 207.75 520.32 227.91 520.32 100.34 528.45 104.74 528.45 234.51 536.58 241.12 536.58 109.13 544.72 113.52 544.72 247.72 552.85 254.33 552.85 117.92 560.98 122.31 560.98 260.93 568.26 266.84 568.26 109.21 511.26 78.42"/>
          <polygon points="435.61 0 379.16 35.2 379.16 106.22 413.9 122.25 413.9 237.13 445.96 225.58 445.96 25.53 455.06 30.6 455.06 222.31 464.16 219.03 464.16 35.68 473.27 40.76 473.27 215.76 484.55 211.69 484.55 27.3 435.61 0"/>
          <polygon points="369.28 109.21 307.71 136.51 307.71 220.86 317.03 225.11 317.03 149.36 325.42 145.64 325.42 228.94 333.82 232.77 333.82 141.92 342.21 138.2 342.21 236.6 350.6 240.42 350.6 134.48 358.99 130.76 358.99 244.25 369.28 248.94 369.28 248.94 374.49 251.32 407.04 239.6 407.04 126.64 369.28 109.21"/>
          <g>
            <rect x="269.17" y="325.84" width="19.51" height="19.51"/>
            <rect x="294.2" y="325.84" width="19.51" height="19.51"/>
            <rect x="269.17" y="350.87" width="19.51" height="19.51"/>
            <rect x="294.2" y="350.87" width="19.51" height="19.51"/>
          </g>
          <g>
            <rect x="596.52" y="341.07" width="14.38" height="14.38"/>
            <rect x="614.97" y="341.07" width="14.38" height="14.38"/>
            <rect x="596.52" y="359.52" width="14.38" height="14.38"/>
            <rect x="614.97" y="359.52" width="14.38" height="14.38"/>
          </g>
          <g>
            <rect x="484.42" y="262.86" width="8.55" height="8.55"/>
            <rect x="495.39" y="262.86" width="8.55" height="8.55"/>
            <rect x="484.42" y="273.82" width="8.55" height="8.55"/>
            <rect x="495.39" y="273.82" width="8.55" height="8.55"/>
          </g>
          <path d="M7.38,428.71s52.7-31.68,140.58-39.98c89.17-8.42,159.75,15.58,159.75,15.58,0,0-81.39-11.72-162.37-4.18-76.67,7.14-137.96,28.58-137.96,28.58Z"/>
          <path d="M46.88,424.06s64.94-16.13,151.45-16.24,259.64,27.15,330.9,40.38c0,0-68.93-2.26-154.91-12.72-120.4-14.64-264-22.23-327.44-11.42Z"/>
          <g>
            <path d="M856.04,356.34c7.78,3.02,15.1,7.33,20.96,14.6,8.7,10.8-5.29,32.92-53.83,44.79-50.18,12.28-79.78,11.23-79.78,11.23,46.86-4.26,87.14-20.14,98.75-27.11,15.86-9.52,28.52-22.42,21.55-33.49-3.62-5.75-10.86-9.79-16.98-12.35-.36-.08-.72-.16-1.09-.24-8.29-1.81-15.49-2.71-21.57-3.07,7,1.45,15.05,4.6,19.63,11.38,9.29,13.76-14.72,29.64-36.79,38.16-22.07,8.52-69.72,19.96-147.55,17.58-26.39-.81-105.99-9.64-155.55-14.18-48.54-2.49-85-1.77-123.67,2.75,0,0,43.38,1.12,110.77,11.43,67.39,10.31,177.37,32.77,273.03,23.86,95.66-8.91,128.96-32.53,131.28-51.12,2.05-16.37-14.54-27.34-39.16-34.22Z"/>
            <path d="M815.49,350.54s-42.52-7.47-73.09,0c0,0,42.58-3.52,51.84,4.91,9.25,8.44-23.16,22.4-23.16,22.4h0c-23.82,10.34-70.19,23.65-156.11,25.88-3.47.09-6.88.17-10.26.24,14.24,1.23,27.86,2.43,35.66,3.16,21.69,2.03,99.81,1.81,148.32-14.62,45.57-15.44,54.17-34.94,26.79-41.96Z"/>
          </g>
          <path d="M147.31,381.9c6.27-.59,12.63-1.04,19.03-1.34l125.09-106.89,150.44,122.44c2.83-.02,5.72-.04,8.68-.04,3.29,0,6.62.01,9.98.04l-169.1-137.63-144.47,123.45c.11-.01.23-.02.34-.03Z"/>
          <path d="M499.71,396.71l2.89.05,110.34-92.95,102.24,83.25c3.32-.64,6.62-1.32,9.89-2.03l-112.14-91.3-122.06,102.82c2.92.05,5.86.11,8.83.17Z"/>
          <path d="M612.68,271.28l-118.51,30.61-58.96,43.45-3.49-2.61,45.34-37.1-185.63-84.65-77.6,66.31v-32.69h-31.03v59.21l-89.76,76.7c9.46-2.12,19.69-4.08,30.6-5.72l167.78-143.37,189.08,153.89,132.16-111.34,121.49,98.92c3.97-.99,7.87-2.05,11.68-3.18l-133.16-108.42Z"/>
          <path d="M839.47,266.82c-.12-1.65,2.95-.55,3.45-2.16,2-6.5-7.17-.12-7.67-.01-1.44.3-3.64-.77-5.3-.42,1.34-3.72,7.36-2.81,6.97-6.48-.64-6-7.6,3.19-9.57-.87-.15-.31,2.41-.66,2.48-2.72.14-3.84-5.26-1.51-6.81.56.75-7.55-8-4.45-5.22,1.32-4.92,2.03.28-2.51-3.46-4.4-2.35-1.19-6.24,4.89-5.68.05.65-5.54,7.45.13,8.23-4.43.62-3.63-6.96-1.59-5.13-5.52,2.92-.54,6.02,2.47,7.38,2.64,3.65.46,2.53-3.39,3.46-3.55,2.29-.4,9.87,5.92,9.14-1.25-.2-1.91-1.74-1.71-2.05-2.14-3.4-4.62,3.34-1.11,4.62-2.12,1.19-.94.49-3.43.91-3.87.36-.38,4.48.04,5.6-1.83.47-.79-.24-3.09-.63-3.34-1.66-1.06-6.53,1.05-6.79.74-.34-.42.32-4.01,0-4.33-.22-.21-3.69-.11-4.39.39-1.07.75-.35,4.97-2.61,2.53-2.17-2.34-1.6-4.71-5.98-1.18-.75-4.76.86-2.82,3.2-4.12,3.57-1.98,2.34-4.61-1.48-4.54,1.79-1.23,5.98-5.59,2.06-6.84-4.4-1.4-3.88,3.02-4.66,4.25-.67,1.06-.8-1.63-1.36-1.77-4.21-1.04-4.13,2.96-3.83,6.1-5.59-1.39-.12-8.58-4.91-8.47-3.57.09-2.48,4.52-2.88,5.01-.27.34-5.45-3.4-4.33,4.32-6.88-2.83-2.34-3.46-2.52-6.47-.24-4.08-6.97-2.2-6.14,2.14-3.94-3.71-4.32-.22-7.76,1.31,1.51-1.19.43-4.97.85-5.64.22-.34,5.53,4.52,6.82-.6,1.05-4.18-6.1-2.3-4.22-7.18,1.68.2.49,2.07,3,2.61,5.61,1.19,3.42-2.03,3.92-2.62,1.58-1.88,1.67,3.24,4.62,2.49,6.59-1.69-1.74-7.53-5.49-7.24,1.81-1.18,1.29-2.15,1.28-3.88,2.95,2.46,8.31-.31,4.24-3.41-.6-.46-4.51-1.02-2.92-2.67.24-.24,4.79,2.42,6.52.04,1.5-2.07-1.68-3.91-1.34-4.35.09-.11,2,0,2.48-1.42,1.98-5.93-4.37-4.31-7.25-1.21.71-2.82.28-5.19-3.29-4.17-3.74,1.07-.92,6.28-4.06,7.65,1.48-3.53-1.76-4.53-1.77-4.82-.04-1.5,2.69-5.25-1.29-5.63-3.57-.34-4.22,3.81-3.24,6.56l-1.06,5.63c.3-6.04-2.84-4.27-3.9-5.23-.19-.17,2.07-2.89-1.49-4.13-4.85-1.68-2.84,4.85-4.2,5.08-6.07,1.04-4.37-2.08-6.4-3.1-1.37-.68-4.2-.26-4.36-.42-.09-.09-.08-2.49.01-2.59.27-.29,6.14,2.18,6.92-1.31.46-2.06-2.73-1.46-2.59-3.01,2.31-.31,8.68,3.99,8.5-1.16-.08-2.33-2.22-1.67-2.44-3.17,1.22.08,5.83-.13,6.11-1.39,1.21-5.58-5.61-3.28-6.12-3.8-.25-.26.68-4.65-1.32-5.19-2.31-.63-4.17,3.06-4.72,2.59-.34-.29-.29-3.38-3.48-2.61.82-1.83,6.16-.78,6.9-3.04.89-2.72-2.25-3.31-4.3-3.01,1.57-1.18,5.32-5.06,3.47-6.91-1.49-1.49-7.47.33-6.07,4.33-2.62.63-1.36-1.48-2.18-2.54-3.57-4.65-4.64,4.93-3.02,7.73-1.69.29-.39-2.03-.9-2.54-.47-.48-2.99.26-3.43-.06-.16-.11,1.59-2.08-.34-3.51-1.16-.86-2.77-1.32-4.02-.43-2.67,1.89,2.18,6.36.9,9.13-1.51-.03-1.06-2.28-2.57-3.04-6.66-3.34-3.95,4.49-4.33,4.77-.92.67-5.19-1.41-4.34,3.84.2,1.21,3.26,4.35.87,4.81.79-4-3.08-3.08-3.48-3.47-.86-.84,2.27-2.91,1.73-4.72-.34-1.13-2.32-.89-2.6-1.78-.73-2.35,3.62-.47,4.33-2.59,1.08-3.24-3.27-2.83-3.46-3.03-1.52-1.71,5.84-3.08,3.08-6.96-2.36-3.33-4.53,1.21-5.04,1.53-1.25.8-4.27.54-5.82,2.84-.42-2.28,3.54-5.56.88-7.38-3.39-2.32-4.38,4.88-6.07,3.05-.44-.47.57-4.23-3.47-3.47.87-2.02,5.23-1.34,4.32-4.74-.47-1.76-3.93-1.04-4.32-1.32-.35-.25,3.31-2.66.93-5.68-2.85-3.62-6.38,1.24-5.27,4.82-1.47-.02-1.21-2.33-2.56-3.08-1.65-.92-3.23.96-3.28,2.48-.07,2.39,3.29,3.94,2.38,4.94-.36.39-7.45-5.89-6.93,2.6-2.25-3.54-5.15.76-6.05,0-.39-.33,6.34-9.53-1.23-6.85-1.43.51-.77,2.71-2.23,2.53.26-5.16-6.12-6.18-5.26-.42.37,2.46,2.52,1.35,2.65,3.02-1.56-.14-6.58-.45-6.05,2.16.56,2.77,5.69,1.16,5.17,3.45-.96,4.2-3.51-.59-6.14,2.58-1.33,1.6.13,2.74.1,3.94.7.02,5.12.63,5.19,1.72-3.34.43-2.47,1.82-1.72,4.33-2.44-.28-5.37,3.61-4.47-.53.48-2.19.93-2.85,1-5.52-2.4-.06-7.46,1.98-7.79,1.72-.33-.25,3.68-6.46-2.16-5.18-3.16.69-1.74,3.26-3.89,4.32-1.42-1.96,1.22-7.03-1.33-7.78-2.39-.7-4.11,2.23-3.88,4.32-1.62.18-.52-2.24-1.65-3.09-1.92-1.45-6.16-.56-4.92,3.14.77,2.29,2.62,1.78,3.11,3.41-7.07-.23-5,5.55.87,4.34-.88,6.61-2.04.87-4.71,1.74-1.03.33-1.12,2.27-1.44,2.49-.32.23-6.89-2.74-6.87,1.39.02,3.26,3.98,3.2,6.1,2.17-1.08,1.44.05,2.83-.04,3.79-.07.7-1.74.15-1.77,1.79-.11,5.86,4.79,1.65,5.71,1.65.7,0,1.87,1.78,4.28,1.46,1.2-.16,2.82-2.03,3.08-1.77.98,1-3.46,3.1-1.73,5.19-1.43-1.64-6.16-2.88-6.91-.42-1.24,4.03,5.75,3.6,6.07,3.89.18.16-1.16,3.18.85,4.31-6.26,2.31-2.29-2.32-3.46-3.46-1.62-1.58-5.8,1.94-6.05,1.73-.63-.53.17-4.74-4.77-4.36-2.99.23-1.98,3.33-2.17,5.23,1.31.15,5.16-.47,3.45,1.72-.06.08-1.73-.23-1.8.51-.1.98,1.18,2.77.96,2.95-.19.15-1.33-.24-1.91.04-1.21.6-.18,1.98-1.55,1.69.94-2.33.63-4.6.86-6.92-3.99-.44-1.75-.67-2.61-1.72-.42-.52-2.82,3.38-3.76,3.99-6.52,4.24-.84-2.4-.77-2.8.31-1.64-.7-6.24-2.83-6.45-5.24-.51-1.87,5.01-2.15,5.24-.63.51-4.17-.63-3.48,3.47-3.03-.73.89-5.95-2.16-6.91-2.89-.91-2.2,2.39-3.88,2.58.07-6.74-8.74-5.13-5.66.89.76,1.49,3.02,1.06,3.05,2.57-1.97-.31-6.19-.13-5.18,3.03.81,2.56,5.9-.36,5.18,3.04-3-1.14-11.9-1-10.3,3.8,1.04,3.13,6.35.08,6.85.53.26.24-.86,1.4-.8,2.19.1,1.3,1.45,2.1,1.48,2.58.02.34-4.96,4.43-.97,5.53.36.1,7.11.06,7.47-.04,2.56-.67,3.51-8.47,4.09.97-1.78-.13-6.01.38-5.93,2.88.15,4.35,6.81,1.44,7.65,2.32.12.13.1,3.32,0,3.45-.98,1.13-3.03-2.61-4.6-2.47-2.24.2-4.09,4.56-6.64,5.07.24-2.03,1.35-5.17-.84-6.53-3-1.87-2.54,1.59-4.35,2.2-.7-8.3-10.21-2.72-3.48,2.17-2.32.69-1.88,1.71-1.74,3.89-1.54.11-.66-2.13-1.3-3.44-1.91-3.94-5.4.24-5.61-.01-.9-1.05-.24-6.58-6.07-2.14,2.05,2.54,1.43,4.68,1.93,6.69.21.85,1.88,2.1,1.53,2.37-.42.33-11.15-3.9-8.27,1.75,1.21,2.38,4.29.76,4.81,2.58-4.59,0-8.91.29-7.79,6.07l6.93-.86c-2.93,3.46-2.07,9.33,2.93,5.95,3.16-2.14.38-4.21,6.59-1.62-.19,1.62-2.82,1.18-3.35,3.14-1.52,5.67,6.44.92,6.8,1.18.32.23.61,4.18,3.75,3.37,2.45-.63,2.2-4.37,4.05-5.1-.34,1.56,1.53,3.14,1.29,4.32-.73,3.61-7.79,2.75-.42,9.51-4.79-.94-3.51.78-4.34,1.73-.87.99-1.11-2.68-2.31-3.51-3.1-2.16-4.76,2.29-5.45,1.79-.09-.07-.17-1.43-.84-2.18-2.61-2.91-4.69-.89-4.46,2.65.11,1.66,5.77,4.61-.35,7.32-.46.2-.91-2.46-2.17-3.08-.91-.45-2.18.49-2.45.33-.54-.32-1.08-4.15-4-3.3-3.66,1.07.66,5.81.41,6.04-.21.19-3.93.15-4.27,2.28-.15.94,2.66,3.61,1.67,4.65-.61.65-3-1.81-4.75-1.82-4.38-.01-4.49,3.98-1.99,5.66l26.8-6.92,23.39,19.05c1.08-1.88-1.09-4.79,3.09-5.44,2.01-.31,15.4,1.86,17.79,2.63,1.07.34,2.07,1.8,1.46,2.42-.28.29-4.28-3.62-6.91.87,1.7-2.76-4.38-4.31-5.2-3.46-.34.35.39,3.88-.04,4.3-.25.24-5.89-.1-4.44,3.37l2.39,1.95c1.43-.33,2.81-2.51,3.5-2.61.95-.14,1.74,1.18,2.62,1.42,1.44.39,3.39-2.15,2.89,1.1-5.67-.88-6.65.62-6.56,2.09l8.76,7.13c.54-1.03,1.16-2.12,4.72-.55.16,1.46-1.96.73-2.48,2.26-.01.03-.02.06-.03.09l3.65,2.97c.66-.48,1.3-1.12,1.83-1.94.36-.55.6-3.63,1.35-2.52.14.21-.32,1.56.52,1.77,3.55.88,5.13-3.08,3.46-5.31-.85-1.13-3.27-.02-3.09-1.65,1.84-.96,10.03,1.24,10.38.85.12-.13.12-3.32,0-3.44-.5-.51-9.36.59-4.76-3.46.9,1.94,5.93,1.99,6.38,2.7.57.9-.5,3.65.94,4.71.9.67,3.93-.11,4.24-.62,1.82-2.91-3.46-7.12-5.06-9.39,6.89,1.14,18.21,1.46,22.36,7.49,7,10.17,6.9,28.53,6.2,40.52-.07,1.17-.43,3.47-.85,6.03l17.25,14.05c-1.33-11.09-2.05-21.21,6.54-31.76,6.65-8.18,17.17-16.13,28.15-12.11,1.23.45,3.06,1.2,3.46,2.59-1.24-.36-2.67.81-3.46.87.15,1.07-.12,3.01,1.31,3.45,3.38,1.06,2.07-2.95,3.88-3.45-1.64,3.55,3.77,5.73,5.2,4.32,1.14-1.12-3.11-8.72,1.3-6.94.31.13,1.36,5.81,4.63,3.27.44-.35-.44-1.88.99-1.52-.68,5.19,7.43,4.71,5.94-.28-.54-1.8-2.15-1.66-2.79-2.25-2.39-2.2,1.53-1.62,2.87-2.26,4.85-2.3-2.18-5.79-3.43-4.74-.22.19.47,1.81-.43,1.73-2.97-2.58.21-1.44.43-1.73.24-.33-.3-2.21.02-2.59.11-.13,2.9,1.66,3.44-.45.51-1.98-1.38-4-3.52-3.55-2.29.48-.48,3.55-5.67,1.49-1.14-.45-1.5.33-1.21-1.82,3.34.73,11.88-3.18,14.13-2.66.83.19.8,1.8,1.44,2.2,1.21.76,3.28.29,3.48.46.31.25-2.78,7.09,2.95,5.12.71-.24,2.46-4.71,3.11-1.21.19.99-3.9,4.18.02,6.08,3.32,1.61,3.48-2.93,5.16-3.93.16,1.85-.96,6.9,1.98,6.75,5.93-.3,2.02-4.69,2.36-5.01,1.19-1.14,2.28,2.65,4.81,2.58,3.44-.1,2.9-6.05-1.34-5.19-.21-1.44,2.51-1.13,2.58-2.15.2-3.02-4.76-2.17-6.91-2.18-.95-3.09,3.31-.52,2.6-3.02-.33-1.15-3.39.75-2.6-2.17,10.56,2.24,5.57-6.51,6.06-6.92,2.46-2.07,2.67,2.87,4,3.35,4.02,1.45,3.66-1.39,3.86-1.53,1.94-1.39,1.63,2.02,3.07,2.45,1.25.37,2.85-.75,3.84-.35.79.32,3.98,5.06,5.88,2,2.19-3.53-2.12-5.53-5.06-5.93.22-1.63,3.87-1.6,3.42-3.8-.41-2.03-4.51-2.11-4.29-2.67,1.44-3.7,6.27,2.09,6.65,2.19,2.87.76,5.35-.65,4.64-3.85-.21-.94-2.15.07-1.77-1.36,5.05,1.06,3.69-2.74,4.34-3.48.15-.18,1.49.8,2.25.84,7.34.3,3.01-7.44-3.12-4.3ZM832.11,227.01c.56.29.56.58,0,.87v-.87ZM771.95,161.25c.3-.59,1.47.51.85,1.72-.3.59-1.47-.51-.85-1.72ZM771.07,277.22c-1.5,1.37.18,4.17,0,4.31-.58.48-9.43-.33-11.25,0,.63-1.27,3.91-2.57,5.21-3,1.02-.34,5.58-1.73,6.04-1.31ZM758.53,272.89c-2.71,2.45-2.94,5.44-6.21,7.64-1.49,1-12.78,4.96-13.27,4.46-.52-.52,1.38-3.87,1.88-4.6,4.39-6.52,13.95-9.31,20.2-13.56.37,3.99-2.45,7.44,3.89,6.93-.16,1.37-4.5,4.19-5.19,3.45-.59-.64,1.32-4.8-1.29-4.31ZM770.2,248.65c.17.2.12,4.1.45,5.17-.87-1.8-5.35-1.48-5.64-1.72-1.71-1.4,4.85-3.86,5.19-3.45ZM769.34,182.88c1.06,1.1-.79,3.38-2.18,3.47-.27.02-1.1-2.25-3.66-2.18l5.83-1.29ZM763.28,178.56c.59.3-.51,1.47-1.72.85-.59-.3.51-1.47,1.72-.85ZM764.14,252.11c-1.49,1.65,1.05,4.17.87,4.32-.94.78-6.23-1.9-6.12,3.02.02,1.12.91,2.36.9,2.63-.06,1.53-3.23.68-3.44.41-.29-.36.81-2.24.82-3.12.02-1.18-.94-2.83-.82-2.93.17-.14,2.28.14,3.44-.46,1.62-.83,2.49-3.26,4.35-3.87ZM760.68,184.61c.22.22-.12,2.62,0,3.45l-3.45-2.6c-.36-1.42,3.33-.98,3.45-.85ZM758.95,241.73c.29.24-1.29,4.02-.87,5.19-2.98-4.3-3.67-2.34-7.78-.87-.82-4.11,7.26-5.5,8.65-4.31ZM752,259.44c7.39,3.37-8.55,15.33-9.49,14.3-.88-.96,4.02-16.8,9.49-14.3ZM745.13,245.71c-.29,1.11,1.08,2.71.84,2.94-.53.5-5.04-2.98-6.93-1.73,1.79-2.42,5.76-4.14,8.65-4.31.8,2.5-2.19,1.63-2.57,3.11ZM741.21,234.82c.47.02,1.39,2.27,2.24,2.97.76.62,2.38.35,2.52.48,1.75,1.63-2.9,2.18-3.8,2.67-3.7,2.03-6.84,5.1-10.9,6.41,1.09-1.93,8.68-12.59,9.94-12.54ZM729.52,233.94c.26-.24,2.69.26,3.75,0,.68-.17.55-1.76,1.11-1.77.23,0,2.84.8,2.94.92.21.26-2.56,5.12-3.11,5.97-.79,1.22-2.05,3.96-3.81,3.53.7-1.61-1.43-8.14-.87-8.65ZM719.99,229.62c.4.33-1.16,2.7,3.46,1.28l-5.17,5.63c.08-1.45-.82-9,1.71-6.91ZM693.16,228.75c.21-.18,5,1.55,5.19,1.74.19.19-.94,4.46-1.29,5.17-.75-.71-4.2-6.66-3.9-6.91ZM689.71,234.81c1.8-1.28,9.72,9.3,8.64,10.37-.62.61-4.32-2.72-6.06-1.73,1.69-4.2.27-6.65-4.31-5.61,1.2-.41,1.59-2.93,1.73-3.03ZM683.64,243.46c12.68,1.45,24.61,11.74,24.23,25.09l-11.56-13.53c-4.08-1.05-.49-4.99-1.45-6.32-.97-1.34-4.98.16-5.15-.04-.3-.34.3-3.16,0-3.47-.7-.75-6.94,1.71-6.06-1.72ZM673.23,262.98c2.62,1.46,4.35-3.94,3.49-4.81-.42-.43-5.18.64-5.21-.44,0-.27,3.31-2.39,4.19-2,.14.06.12,1,.47,1.2,5.86,3.43,8.22,8.69,10.51,15.07-6.45-2.65-12.4-5.38-17.75-9.94,2.03-4.89,2.88.14,4.3.93ZM649,275.47c-.27.24-6.63-.38-6.91-1.72,1.46.33,3.55-2.56,3.89-2.57.34,0,3.89,3.52,3.03,4.28ZM653.89,275.32c-1.54-.89-1.24-2.28-1.42-2.44-.11-.1-1.14.17-1.73-.63-3.55-4.83-1.2-3.41,3.44-4.14-1.26.6-2.38,4.1-1.71,4.77.78.78,6.52-1.31,6.92-.87.19.21,0,4.12,1.74,5.19-.46.35-6.39-1.39-7.24-1.88ZM679.31,281.53c9.17-8.62-2.19-4.72-2.59-5.18-.34-.39-1.96-11.43-5.21-1.74-1.77-.36-1-3.47-3.88-2.58-2.77,6.45-1.68,1.99-4.18.22-.71-.51-2.17-.09-2.33-.23-.16-.15,1.02-1.74.76-2.83-.19-.79-2.02-2.03-1.62-2.35,2.45-1.91,33.04,9.99,34.63,16.43-5.39-.32-10.23-3.4-15.58-1.73ZM707.87,288.46l-15.57-15.14c-1.8-3.31-4.08-6.4-5.92-9.67-.89-1.58-.49-4.01-2.73-3.75-.09-1.61,2.03-.08,3.5-.34.82-.14,2.12-1.67,2.54-1.38.32.22.38,3.95,3.29,2.32.34-.19-.26-2.32,1.94-1.04,7.19,4.2,15.03,20.52,12.96,29.01ZM709.6,255.57l-7.63-10.97c-1.91-1.84-2.97-12.43-.59-12.38.12,0,1.01,1.25,1.98,1.5,1.13.29,2.95-.02,3.52.34,1.65,1.03,3.26,18.57,2.72,21.51ZM712.23,243.88c-.74-5-2.81-12.71,2.57-15.14,1,5.98-.1,10.6-.86,16.45-2.17.15-1.48.2-1.71-1.31ZM718.77,241.8c.86-1.47,6.42-9.64,8.15-7.86.57.59,1.47,14.31.29,16.3l-11.53,15.72c-1.22-8.82-1.53-16.24,3.09-24.16ZM731.21,253.36c1.43-1.54,2.94-1.63,3.5-2.12.11-.1.08-1.37.9-2.1,3.11-2.75,3.61,1,3.43,1.22-.31.39-4.19.71-4.33.88-1.68,1.98,2.51,3.83,3.21,4.63.52.59-.08,2.96,2.55,3.04,4.43.14-.22-5.48.3-5.94,2.24-1.96,3.62,2.41,3.44,4.66-.33,3.94-6.56,20.46-8.79,24.18-3.66,6.1-10.79,11.51-15.42,17.03-4.33-18.41-1.59-31.68,11.21-45.48ZM743.38,305.76c-1.29-1.19,4.66-5.61,5.63-6.04-1.16,1.25,1.43,4.11,1.29,4.3-.21.29-6.59,2.04-6.92,1.74ZM768.9,291.05c-3.31-.68,1.24-.06.3-2.83-2.5-7.36-6.32.4-8.52,3.7-2.01-.14.7-3.27,0-4.28-.22-.32-3.79-1.11-4.64-.84-1.45.47-.76,3.33-3.57,2.55-.24-.07-.8-3.48-3.95-1.36-1.78,1.19-.14,3.3-.37,4.79-2.42-2.05-7.6.03-5.52,3.36.45.71,3.5.24,3.34,1.83-5.03,1.31-6.43,7.55-9.52,10.83-1.71,1.81-4.87,3.46-6.94,5.18-1.09.91-5.24,5.55-5.62,5.64-1.93.47-1.18-.99-1.29-2.15-1.54-17.02,16.17-33.34,32.46-33.34,2.72,0,17.92-.62,18.61,0,1.12,1.01-3.68,6.17-4.77,6.92ZM773.67,291.91c.24-1.91,9.12-6.51,9.52-6.05-.91,3.86,1.69,1.55,2.59,3.45l-12.11,2.6Z"/>
        </g>
      </g>
      <g>
        <path d="M154.27,670.87c-.6-.7-1.41-1.38-2.41-2.04-1.01-.65-2.14-1.24-3.39-1.77-1.26-.53-2.63-.96-4.11-1.28-1.48-.33-3.03-.49-4.64-.49-4.12,0-7.17.78-9.13,2.33-1.96,1.55-2.94,3.69-2.94,6.39,0,1.9.5,3.41,1.51,4.51,1.01,1.1,2.55,2.01,4.64,2.71,2.09.7,4.74,1.43,7.96,2.18,3.72.8,6.94,1.78,9.66,2.93,2.72,1.15,4.8,2.69,6.26,4.62,1.46,1.93,2.19,4.5,2.19,7.71,0,2.56-.49,4.78-1.47,6.66-.98,1.88-2.35,3.43-4.11,4.66-1.76,1.23-3.82,2.13-6.19,2.71-2.36.58-4.93.86-7.69.86s-5.37-.29-7.96-.87c-2.59-.58-5.04-1.42-7.36-2.53-2.31-1.11-4.48-2.49-6.49-4.15l3.24-5.73c.8.86,1.85,1.7,3.13,2.53,1.28.83,2.74,1.6,4.38,2.3,1.63.71,3.41,1.27,5.32,1.7,1.91.43,3.87.64,5.88.64,3.82,0,6.79-.69,8.9-2.06,2.11-1.38,3.17-3.39,3.17-6.04,0-2.01-.59-3.61-1.77-4.81-1.18-1.2-2.93-2.21-5.24-3.01-2.31-.8-5.13-1.61-8.45-2.41-3.62-.9-6.66-1.89-9.13-2.97-2.46-1.08-4.31-2.49-5.54-4.25-1.23-1.75-1.85-4.04-1.85-6.85,0-3.41.83-6.29,2.49-8.65s3.95-4.14,6.86-5.34c2.92-1.2,6.21-1.81,9.88-1.81,2.41,0,4.66.25,6.75.75,2.09.5,4.04,1.21,5.85,2.11,1.81.91,3.47,1.99,4.98,3.24l-3.17,5.51Z"/>
        <path d="M216.21,707.16v6.04h-36.36v-53.56h35.68v6.04h-28.89v17.35h25.12v5.66h-25.12v18.48h29.57Z"/>
        <path d="M236.58,713.19v-53.56h22.93c2.36,0,4.53.49,6.49,1.47,1.96.98,3.67,2.29,5.13,3.92,1.46,1.63,2.59,3.47,3.39,5.51.8,2.04,1.21,4.11,1.21,6.22,0,2.46-.47,4.8-1.4,7.02-.93,2.21-2.24,4.1-3.92,5.66-1.69,1.56-3.66,2.64-5.92,3.24l12.98,20.52h-7.69l-12.22-19.24h-14.18v19.24h-6.79ZM243.37,687.92h16.22c1.86,0,3.48-.51,4.87-1.55,1.38-1.03,2.46-2.4,3.24-4.11.78-1.71,1.17-3.54,1.17-5.51s-.45-3.86-1.36-5.54c-.91-1.68-2.09-3.03-3.55-4.04-1.46-1.01-3.07-1.51-4.83-1.51h-15.77v22.25Z"/>
        <path d="M297.23,659.63l17.73,45.04,17.65-45.04h7.17l-21.73,53.56h-6.19l-21.8-53.56h7.17Z"/>
        <path d="M358.11,713.19v-53.56h6.79v53.56h-6.79Z"/>
        <path d="M385.34,685.96c0-3.27.57-6.47,1.7-9.62,1.13-3.14,2.79-6.01,4.98-8.6,2.19-2.59,4.87-4.65,8.03-6.19,3.17-1.53,6.76-2.3,10.79-2.3,4.78,0,8.88,1.09,12.3,3.28,3.42,2.19,5.96,4.99,7.62,8.41l-5.36,3.47c-1.06-2.26-2.4-4.06-4.04-5.39-1.64-1.33-3.39-2.27-5.28-2.83-1.89-.55-3.73-.83-5.54-.83-2.97,0-5.6.6-7.88,1.81-2.29,1.21-4.21,2.82-5.77,4.83-1.56,2.01-2.73,4.26-3.51,6.75-.78,2.49-1.17,4.99-1.17,7.51,0,2.77.46,5.43,1.4,8,.93,2.56,2.23,4.83,3.89,6.79,1.66,1.96,3.62,3.52,5.88,4.68,2.26,1.16,4.73,1.74,7.39,1.74,1.86,0,3.77-.33,5.73-.98,1.96-.65,3.8-1.67,5.51-3.06,1.71-1.38,3.07-3.18,4.07-5.39l5.66,3.09c-1.11,2.67-2.82,4.93-5.13,6.79-2.31,1.86-4.89,3.27-7.73,4.22-2.84.96-5.65,1.43-8.41,1.43-3.67,0-7.04-.79-10.11-2.38-3.07-1.58-5.72-3.7-7.96-6.34-2.24-2.64-3.97-5.61-5.21-8.9-1.23-3.29-1.85-6.63-1.85-10Z"/>
        <path d="M487.71,707.16v6.04h-36.36v-53.56h35.68v6.04h-28.89v17.35h25.12v5.66h-25.12v18.48h29.57Z"/>
        <path d="M539.53,670.87c-.6-.7-1.41-1.38-2.41-2.04-1.01-.65-2.14-1.24-3.39-1.77-1.26-.53-2.63-.96-4.11-1.28-1.48-.33-3.03-.49-4.64-.49-4.12,0-7.17.78-9.13,2.33-1.96,1.55-2.94,3.69-2.94,6.39,0,1.9.5,3.41,1.51,4.51,1.01,1.1,2.55,2.01,4.64,2.71,2.09.7,4.74,1.43,7.96,2.18,3.72.8,6.94,1.78,9.66,2.93,2.72,1.15,4.8,2.69,6.26,4.62,1.46,1.93,2.19,4.5,2.19,7.71,0,2.56-.49,4.78-1.47,6.66-.98,1.88-2.35,3.43-4.11,4.66-1.76,1.23-3.82,2.13-6.19,2.71-2.36.58-4.93.86-7.69.86s-5.37-.29-7.96-.87c-2.59-.58-5.04-1.42-7.36-2.53-2.31-1.11-4.48-2.49-6.49-4.15l3.24-5.73c.8.86,1.85,1.7,3.13,2.53,1.28.83,2.74,1.6,4.38,2.3,1.63.71,3.41,1.27,5.32,1.7,1.91.43,3.87.64,5.88.64,3.82,0,6.79-.69,8.9-2.06,2.11-1.38,3.17-3.39,3.17-6.04,0-2.01-.59-3.61-1.77-4.81-1.18-1.2-2.93-2.21-5.24-3.01-2.31-.8-5.13-1.61-8.45-2.41-3.62-.9-6.66-1.89-9.13-2.97-2.46-1.08-4.31-2.49-5.54-4.25-1.23-1.75-1.85-4.04-1.85-6.85,0-3.41.83-6.29,2.49-8.65s3.95-4.14,6.86-5.34c2.92-1.2,6.21-1.81,9.88-1.81,2.41,0,4.66.25,6.75.75,2.09.5,4.04,1.21,5.85,2.11,1.81.91,3.47,1.99,4.98,3.24l-3.17,5.51Z"/>
        <path d="M564.27,719.3l1.51-6.71h-2.26v-7.85h6.26v7.85l-2.26,6.71h-3.24Z"/>
        <path d="M622.28,713.19v-53.56h6.79v47.53h29.87v6.04h-36.66Z"/>
        <path d="M677.43,713.19v-53.56h6.79v47.53h29.87v6.04h-36.66Z"/>
        <path d="M727.44,685.96c0-3.27.57-6.47,1.7-9.62,1.13-3.14,2.79-6.01,4.98-8.6,2.19-2.59,4.87-4.65,8.03-6.19,3.17-1.53,6.76-2.3,10.79-2.3,4.78,0,8.88,1.09,12.3,3.28,3.42,2.19,5.96,4.99,7.62,8.41l-5.36,3.47c-1.06-2.26-2.4-4.06-4.04-5.39-1.63-1.33-3.39-2.27-5.28-2.83-1.89-.55-3.73-.83-5.54-.83-2.97,0-5.6.6-7.88,1.81-2.29,1.21-4.21,2.82-5.77,4.83-1.56,2.01-2.73,4.26-3.51,6.75-.78,2.49-1.17,4.99-1.17,7.51,0,2.77.46,5.43,1.4,8,.93,2.56,2.23,4.83,3.88,6.79,1.66,1.96,3.62,3.52,5.88,4.68,2.26,1.16,4.73,1.74,7.39,1.74,1.86,0,3.77-.33,5.73-.98,1.96-.65,3.8-1.67,5.51-3.06,1.71-1.38,3.07-3.18,4.07-5.39l5.66,3.09c-1.11,2.67-2.82,4.93-5.13,6.79-2.31,1.86-4.89,3.27-7.73,4.22-2.84.96-5.65,1.43-8.41,1.43-3.67,0-7.04-.79-10.11-2.38-3.07-1.58-5.72-3.7-7.96-6.34-2.24-2.64-3.97-5.61-5.21-8.9-1.23-3.29-1.85-6.63-1.85-10Z"/>
      </g>
    </g>
  </g>
</svg>